<svg width="20" height="18" viewBox="0 0 20 18" fill="none" xmlns="http://www.w3.org/2000/svg">
<path d="M6.85711 3.62496C7.43524 -0.26429 13.0339 -0.247719 13.7143 3.62496M17.4183 5.3396L18.8334 14.4385C18.8781 14.7265 18.8595 15.0206 18.7786 15.3008C18.6978 15.581 18.5568 15.8406 18.3651 16.0618C18.1735 16.283 17.9358 16.4606 17.6684 16.5825C17.4009 16.7043 17.11 16.7676 16.8156 16.7678H3.18642C2.8918 16.7679 2.60066 16.7048 2.33295 16.5831C2.06525 16.4614 1.82731 16.2838 1.63546 16.0626C1.4436 15.8413 1.30237 15.5816 1.22143 15.3013C1.1405 15.021 1.12178 14.7267 1.16657 14.4385L2.58159 5.3396C2.65581 4.862 2.90043 4.42649 3.27114 4.11196C3.64185 3.79742 4.11414 3.62466 4.60246 3.62496H15.3995C15.8877 3.6249 16.3597 3.79778 16.7302 4.11229C17.1007 4.4268 17.3452 4.86217 17.4194 5.3396H17.4183Z" stroke="black" stroke-linejoin="round"/>
</svg>
