<svg width="18" height="17" viewBox="0 0 18 17" fill="none" xmlns="http://www.w3.org/2000/svg">
<path d="M15.9089 8.82181L9.00774 15.7143L2.10655 8.82181C1.65135 8.37512 1.2928 7.83824 1.05347 7.24495C0.814146 6.65166 0.699226 6.01483 0.715951 5.37456C0.732676 4.73429 0.880683 4.10444 1.15065 3.52468C1.42062 2.94492 1.8067 2.42782 2.28459 2.00592C2.76247 1.58402 3.32181 1.26648 3.92737 1.07328C4.53293 0.880079 5.1716 0.815414 5.80317 0.883353C6.43473 0.951292 7.0455 1.15036 7.59702 1.46803C8.14854 1.7857 8.62886 2.21509 9.00774 2.72915C9.38825 2.21882 9.86913 1.79319 10.4203 1.47889C10.9714 1.16459 11.581 0.968394 12.2107 0.902578C12.8405 0.836762 13.477 0.902743 14.0804 1.09639C14.6837 1.29004 15.2409 1.60719 15.7171 2.02799C16.1933 2.44879 16.5783 2.96418 16.8479 3.5419C17.1175 4.11962 17.2659 4.74725 17.2839 5.38549C17.3019 6.02373 17.1891 6.65884 16.9525 7.25109C16.7159 7.84333 16.3606 8.37996 15.9089 8.82737" stroke="black" stroke-linecap="round" stroke-linejoin="round"/>
</svg>
