<svg width="40" height="40" viewBox="0 0 40 40" fill="none" xmlns="http://www.w3.org/2000/svg">
<path d="M19.25 30C19.25 30.4142 19.5858 30.75 20 30.75C20.4142 30.75 20.75 30.4142 20.75 30L19.25 30ZM20.5303 9.46967C20.2374 9.17678 19.7626 9.17678 19.4697 9.46967L14.6967 14.2426C14.4038 14.5355 14.4038 15.0104 14.6967 15.3033C14.9896 15.5962 15.4645 15.5962 15.7574 15.3033L20 11.0607L24.2426 15.3033C24.5355 15.5962 25.0104 15.5962 25.3033 15.3033C25.5962 15.0104 25.5962 14.5355 25.3033 14.2426L20.5303 9.46967ZM20.75 30L20.75 10L19.25 10L19.25 30L20.75 30Z" fill="#C8C8C8"/>
<rect x="0.5" y="0.5" width="39" height="39" rx="19.5" stroke="#C8C8C8"/>
</svg>
